<svg xmlns="http://www.w3.org/2000/svg" xmlns:xlink="http://www.w3.org/1999/xlink" width="628" height="660" viewBox="0 0 628 660" fill="none">
<rect  x="116" y="148" width="512" height="512" rx="50"    fill="#3178C6" >
</rect>
<rect  x="116" y="148" width="512" height="512" rx="50"    fill="#3178C6" >
</rect>
<path d="M432.939 555.424L432.939 605.485C441.077 609.657 450.702 612.785 461.814 614.871C472.926 616.957 484.637 618 496.949 618C508.948 618 520.346 616.853 531.145 614.558C541.944 612.264 551.413 608.483 559.551 603.216C567.689 597.95 574.132 591.066 578.879 582.566C583.626 574.066 586 563.559 586 551.044C586 541.97 584.644 534.018 581.931 527.187C579.218 520.356 575.306 514.281 570.193 508.962C565.081 503.643 558.951 498.871 551.804 494.647C544.657 490.423 536.597 486.434 527.624 482.68C521.051 479.968 515.156 477.335 509.939 474.78C504.722 472.224 500.288 469.617 496.636 466.958C492.984 464.298 490.167 461.482 488.185 458.51C486.203 455.537 485.211 452.174 485.211 448.419C485.211 444.978 486.098 441.875 487.872 439.111C489.646 436.347 492.15 433.975 495.384 431.993C498.619 430.012 502.583 428.473 507.278 427.378C511.974 426.283 517.19 425.736 522.929 425.736C527.102 425.736 531.51 426.049 536.153 426.674C540.796 427.3 545.465 428.265 550.161 429.568C554.856 430.872 559.42 432.515 563.855 434.496C568.289 436.478 572.384 438.772 576.14 441.38L576.14 394.604C568.524 391.684 560.203 389.52 551.178 388.112C542.153 386.704 531.797 386 520.112 386C508.217 386 496.949 387.278 486.307 389.833C475.665 392.388 466.301 396.377 458.214 401.8C450.128 407.224 443.738 414.133 439.043 422.529C434.348 430.924 432 440.962 432 452.643C432 467.557 436.304 480.281 444.912 490.815C453.519 501.348 466.587 510.265 484.116 517.566C491.002 520.382 497.419 523.145 503.366 525.857C509.313 528.569 514.452 531.385 518.781 534.305C523.111 537.225 526.528 540.406 529.033 543.848C531.537 547.289 532.789 551.2 532.789 555.581C532.789 558.814 532.006 561.812 530.441 564.576C528.876 567.34 526.502 569.738 523.32 571.772C520.138 573.806 516.173 575.396 511.426 576.543C506.678 577.691 501.123 578.264 494.758 578.264C483.907 578.264 473.161 576.361 462.518 572.554C451.876 568.748 442.016 563.038 432.939 555.424ZM348.78 432.082L413 432.082L413 391L234 391L234 432.082L297.906 432.082L297.906 615L348.78 615L348.78 432.082Z" fill-rule="evenodd"  fill="#FFFFFF" >
</path>
<path d="M399.641 59.5246L215.643 388.545C211.844 395.338 202.084 395.378 198.228 388.618L10.5817 59.5563C6.38087 52.1896 12.6802 43.2665 21.0281 44.7586L205.223 77.6824C206.398 77.8924 207.601 77.8904 208.776 77.6763L389.119 44.8058C397.439 43.2894 403.768 52.1434 399.641 59.5246Z"   fill="url(#linear_fill_aKMEqjUWGvySSJbOh7RnF)" >
</path>
<path d="M292.965 1.5744L156.801 28.2552C154.563 28.6937 152.906 30.5903 152.771 32.8664L144.395 174.33C144.198 177.662 147.258 180.248 150.51 179.498L188.42 170.749C191.967 169.931 195.172 173.055 194.443 176.622L183.18 231.775C182.422 235.487 185.907 238.661 189.532 237.56L212.947 230.446C216.577 229.344 220.065 232.527 219.297 236.242L201.398 322.875C200.278 328.294 207.486 331.249 210.492 326.603L212.5 323.5L323.454 102.072C325.312 98.3645 322.108 94.137 318.036 94.9228L279.014 102.454C275.347 103.161 272.227 99.746 273.262 96.1583L298.731 7.86688C299.767 4.27313 296.636 0.855178 292.965 1.5744Z"   fill="url(#linear_fill_cWj7vK1MRww5Pek3YSpKv)" >
</path>
<defs>
<linearGradient id="linear_fill_aKMEqjUWGvySSJbOh7RnF" x1="6.00018310546875" y1="32.9998779296875" x2="235" y2="344" gradientUnits="userSpaceOnUse">
<stop offset="0" stop-color="#41D1FF"  />
<stop offset="1" stop-color="#BD34FE"  />
</linearGradient>
<linearGradient id="linear_fill_cWj7vK1MRww5Pek3YSpKv" x1="194.6510009765625" y1="8.81817626953125" x2="236.07599639892578" y2="292.9889831542969" gradientUnits="userSpaceOnUse">
<stop offset="0" stop-color="#FFEA83"  />
<stop offset="0.0833333" stop-color="#FFDD35"  />
<stop offset="1" stop-color="#FFA800"  />
</linearGradient>
</defs>
</svg>
